<svg version="1.1" viewBox="0.0 0.0 800.0 600.0" fill="none" stroke="none" stroke-linecap="square" stroke-miterlimit="10" xmlns:xlink="http://www.w3.org/1999/xlink" xmlns="http://www.w3.org/2000/svg">
    <clipPath id="p.0">
        <path d="m0 0l800.0 0l0 600.0l-800.0 0l0 -600.0z" clip-rule="nonzero"/>
    </clipPath>

    <style>
        path {
            stroke-dasharray: 25;
            animation-name: show-text;
            animation-duration: 2s;
            animation-fill-mode: forwards;
        }

        @keyframes show-text {
            0% {
                stroke-dashoffset: -25;
                stroke-width: 3;
            }

            70% {
                stroke-width: 3;
                fill: transparent;
            }

            100% {
                stroke-dashoffset: 0;
                stroke-width: 0;
                fill: crimson;
            }
        }
    </style>

    <g clip-path="url(#p.0)">
        <path fill="#000000" fill-opacity="0.0" d="m0 0l800.0 0l0 600.0l-800.0 0z" fill-rule="evenodd"/>
        <path fill="#000000" fill-opacity="0.0" d="m104.25197 217.59055l591.4961 0l0 164.81891l-591.4961 0z" fill-rule="evenodd"/>
        <path fill="transparent" stroke="red" pathLength="100" d="m272.32272 315.02493q1.5625 0 2.453125 1.453125q0.90625 1.4375 0.90625 3.953125q0 4.671875 -2.28125 7.4375q-5.765625 6.96875 -11.640625 10.75q-5.8750153 3.765625 -13.92189 3.765625q-8.875 0 -14.515625 -5.21875q-5.640625 -5.21875 -10.5625 -16.25q-3.59375 -7.921875 -5.9375 -11.8125q-2.34375 -3.90625 -4.625 -5.53125q-2.28125 -1.625 -5.75 -1.984375l-1.328125 8.890625q-2.515625 17.15625 -9.78125 24.71875q-7.265625 7.546875 -19.984375 7.546875q-8.28125 0 -14.703125 -4.015625q-6.40625 -4.015625 -8.9375 -10.25q-0.828125 -2.171875 -0.828125 -4.6875q0 -3.59375 1.671875 -6.234375q1.6875 -2.640625 4.328125 -2.640625q1.5625 0 2.640625 0.78125q1.078125 0.78125 2.03125 2.6875q3.71875 6.96875 6.53125 9.734375q2.828125 2.75 7.03125 2.75q4.796875 0 8.21875 -4.375q3.421875 -4.390625 4.859375 -13.5l1.6875 -11.40625l-1.921875 0q-2.765625 0 -4.328125 -1.546875q-1.5625 -1.5625 -1.5625 -4.328125q0 -3.125 1.625 -4.984375q1.625 -1.859375 4.015625 -1.859375l3.96875 0q0.84375 -5.875 1.203125 -8.15625l3.71875 -27.000015q-3.125 -0.359375 -5.890625 -0.359375q-10.1875 0 -15.46875 3.5468903q-5.28125 3.53125 -5.28125 10.125q0 3.0 0.65625 4.859375q0.65625 1.859375 1.734375 4.140625q0.484375 0.96875 0.484375 2.171875q0 2.640625 -2.46875 4.625q-2.453125 1.96875 -5.453125 1.96875q-3.84375 0 -5.640625 -3.359375q-3.59375 -6.359375 -3.59375 -13.6875q0 -7.546875 4.140625 -13.781265q4.140625 -6.25 12.53125 -10.03125q8.40625 -3.78125 20.765625 -3.78125q5.40625 0 9.90625 0.609375q4.5 0.59375 9.890625 2.265625q5.890625 1.8125 5.890625 6.71875q0 6.6093903 -5.640625 6.6093903l-4.6875 32.28125q14.046875 -1.4375 22.859375 -12.0625q8.828125 -10.625 14.703125 -28.85939q1.078125 -3.359375 3.65625 -5.15625q2.578125 -1.8125 6.5468903 -1.8125q3.359375 0 5.21875 1.5q1.859375 1.5 1.859375 4.265625q0 0.84375 -0.484375 2.765625q-6.0 19.79689 -17.156265 31.437515q-11.15625 11.640625 -24.359375 15.484375q4.5625 1.078125 7.5 3.234375q2.9375 2.15625 4.96875 5.34375q2.046875 3.171875 4.6875 8.8125q3.71875 7.921875 6.953125 11.21875q3.25 3.296875 7.5625 3.296875q3.8437653 0 7.3281403 -2.578125q3.484375 -2.578125 8.75 -8.8125q1.453125 -1.6875 3.25 -1.6875zm9.361755 -37.078125q-5.046875 0 -7.5625 -2.328125q-2.515625 -2.34375 -2.515625 -6.546875q0 -4.203125 3.296875 -7.015625q3.296875 -2.828125 8.21875 -2.828125q4.4375 0 7.1875 2.171875q2.765625 2.15625 2.765625 6.109375q0 4.796875 -3.125 7.625q-3.109375 2.8125 -8.265625 2.8125zm-0.96875 64.4375q-7.796875 0 -11.34375 -5.515625q-3.53125 -5.515625 -3.53125 -14.640625q0 -5.390625 1.375 -13.84375q1.390625 -8.46875 3.546875 -15.796875q1.078125 -3.84375 2.875 -5.28125q1.796875 -1.4375 5.765625 -1.4375q6.109375 0 6.109375 4.078125q0 3.0 -2.265625 13.921875q-2.890625 13.203125 -2.890625 17.875q0 3.609375 0.953125 5.53125q0.96875 1.921875 3.25 1.921875q2.15625 0 5.390625 -3.0q3.25 -3.0 8.65625 -9.484375q1.4375 -1.6875 3.234375 -1.6875q1.5625 0 2.453125 1.453125q0.90625 1.4375 0.90625 3.953125q0 4.796875 -2.28125 7.4375q-11.875 14.515625 -22.203125 14.515625zm23.285614 0q-4.5625 0 -6.421875 -4.796875q-1.859375 -4.796875 -1.859375 -15.359375q0 -15.59375 4.4375 -29.640625q1.078125 -3.484375 3.53125 -5.09375q2.46875 -1.625 6.90625 -1.625q2.40625 0 3.359375 0.609375q0.96875 0.59375 0.96875 2.265625q0 1.921875 -1.796875 8.640625q-1.203125 4.8125 -1.921875 8.40625q-0.71875 3.59375 -1.203125 8.875q3.953125 -10.3125 8.875 -16.796875q4.921875 -6.484375 9.65625 -9.234375q4.75 -2.765625 8.703125 -2.765625q7.796875 0 7.796875 7.796875q0 1.5625 -1.078125 7.5625q-0.953125 4.796875 -0.953125 6.0q0 4.203125 3.0 4.203125q3.359375 0 8.640625 -5.28125q1.5625 -1.5625 3.234375 -1.5625q1.5625 0 2.453125 1.390625q0.90625 1.375 0.90625 3.65625q0 4.4375 -2.390625 6.953125q-3.359375 3.484375 -7.859375 5.953125q-4.5 2.453125 -9.546875 2.453125q-6.359375 0 -9.65625 -3.234375q-3.296875 -3.25 -3.296875 -8.765625q0 -1.796875 0.359375 -3.609375q0.234375 -2.390625 0.234375 -3.234375q0 -1.921875 -1.3125 -1.921875q-1.8125 0 -4.75 4.03125q-2.9375 4.015625 -5.828125 10.625q-2.875 6.59375 -4.671875 13.90625q-1.3125 5.640625 -3.0625 7.625q-1.734375 1.96875 -5.453125 1.96875zm69.83432 0q-12.0 0 -17.46875 -9.234375q-5.453125 -9.234375 -5.453125 -26.765625q0 -15.46875 3.84375 -33.640625q3.84375 -18.187515 11.21875 -30.968765q7.390625 -12.78125 17.578125 -12.78125q5.53125 0 8.890625 4.75q3.359375 4.734375 3.359375 12.28125q0 9.84375 -3.71875 19.562515q-3.71875 9.71875 -12.359375 20.40625q5.875 0.484375 10.25 3.96875q4.390625 3.46875 6.71875 9.0q2.34375 5.515625 2.34375 11.984375q0 9.0 -3.546875 16.203125q-3.53125 7.203125 -9.296875 11.21875q-5.75 4.015625 -12.359375 4.015625zm-7.078125 -48.234375q7.921875 -14.515625 12.65625 -25.609375q4.75 -11.109375 4.75 -19.750015q0 -3.84375 -0.90625 -5.875q-0.890625 -2.046875 -2.453125 -2.046875q-2.40625 0 -5.234375 7.140625q-2.8125 7.140625 -5.21875 19.39064q-2.390625 12.234375 -3.59375 26.75zm7.5625 35.28125q4.078125 0 6.890625 -4.4375q2.828125 -4.4375 2.828125 -12.96875q0 -6.59375 -2.40625 -9.953125q-2.390625 -3.359375 -5.75 -3.359375q-4.203125 0 -7.09375 4.328125q-2.875 4.3125 -2.875 12.59375q0 7.203125 2.40625 10.5q2.40625 3.296875 6.0 3.296875zm176.51865 -14.40625q1.5625 0 2.453125 1.453125q0.90625 1.4375 0.90625 3.953125q0 4.671875 -2.28125 7.4375q-5.75 6.96875 -11.640625 10.75q-5.875 3.765625 -13.921875 3.765625q-7.796875 0 -13.265625 -4.1875q-5.4530945 -4.203125 -10.3749695 -14.40625q-3.953125 -8.15625 -6.234375 -12.046875q-2.28125 -3.90625 -4.5 -5.578125q-2.21875 -1.6875 -5.453125 -2.0625q-0.484375 2.53125 -2.765625 15.84375q-0.953125 6.0 -1.203125 7.328125q-1.203125 7.3125 -4.796875 11.21875q-3.59375 3.890625 -10.921875 3.890625q-8.03125 0 -14.21875 -4.734375q-6.1875 -4.734375 -9.546875 -13.1875q-3.359375 -8.46875 -3.359375 -19.265625q0 -20.171875 7.015625 -34.8125q7.03125 -14.64064 19.6875 -22.375015q12.65625 -7.734375 29.21875 -7.734375q11.53125 0 19.328094 3.484375q7.796875 3.46875 11.578125 9.59375q3.78125 6.1250153 3.78125 13.79689q0 6.71875 -3.1875 13.140625q-3.171875 6.421875 -9.53125 11.34375q-6.3593445 4.921875 -15.4843445 7.3125q5.765625 1.5625 8.875 5.046875q3.1249695 3.484375 6.2499695 10.203125q3.359375 7.1875 6.65625 10.546875q3.296875 3.359375 7.625 3.359375q3.828125 0 7.3125 -2.578125q3.484375 -2.578125 8.765625 -8.8125q1.4375 -1.6875 3.234375 -1.6875zm-80.87497 -11.03125q-4.078125 0 -5.578125 -1.921875q-1.5 -1.921875 -1.5 -4.328125q0 -2.875 1.859375 -4.546875q1.859375 -1.6875 4.25 -1.6875l3.0 0q1.921875 -11.765625 3.609375 -20.28125q1.5625 -7.796875 10.078125 -7.796875q6.84375 0 6.84375 6.125q0 1.3125 -0.125 2.03125l-3.59375 19.921875q6.46875 -0.359375 11.8125 -3.109375q5.34375 -2.765625 8.515625 -7.6875q3.1874695 -4.921875 3.1874695 -11.15625q0 -7.5625 -5.1718445 -11.875q-5.15625 -4.3281403 -15.109375 -4.3281403q-11.765625 0 -20.59375 5.8281403q-8.8125 5.8125 -13.734375 17.28125q-4.90625 11.453125 -4.90625 27.890625q0 7.671875 1.546875 13.203125q1.5625 5.515625 3.84375 8.28125q2.28125 2.75 4.328125 2.75q1.546875 0 2.5625 -1.546875q1.03125 -1.5625 1.625 -5.046875l3.25 -18.0zm86.756134 38.390625q-5.40625 0 -8.828125 -4.96875q-3.40625 -4.984375 -3.40625 -12.421875q0 -9.0 1.1875 -16.5q1.203125 -7.5 3.96875 -15.90625q1.203125 -3.59375 3.359375 -5.15625q2.15625 -1.5625 6.84375 -1.5625q2.640625 0 3.65625 0.84375q1.015625 0.84375 1.015625 2.515625q0 0.96875 -1.3125 6.484375q-1.203125 4.4375 -1.921875 8.03125q-2.40625 12.609375 -2.40625 16.8125q0 2.515625 0.59375 3.53125q0.609375 1.015625 1.9375 1.015625q1.796875 0 4.484375 -3.59375q2.703125 -3.59375 5.765625 -10.90625q3.0625 -7.328125 5.9375 -18.015625q0.96875 -3.59375 2.9375 -5.15625q1.984375 -1.5625 5.953125 -1.5625q2.75 0 3.828125 0.671875q1.09375 0.65625 1.09375 2.453125q0 3.0 -3.0 16.4375q-3.375 15.359375 -3.375 18.953125q0 2.28125 0.953125 3.546875q0.96875 1.265625 2.53125 1.265625q2.40625 0 5.703125 -2.9375q3.296875 -2.953125 8.8125 -9.546875q1.453125 -1.6875 3.25 -1.6875q1.5625 0 2.453125 1.453125q0.90625 1.4375 0.90625 3.953125q0 4.796875 -2.28125 7.4375q-5.15625 6.359375 -11.109375 10.4375q-5.9375 4.078125 -13.484375 4.078125q-5.765625 0 -8.46875 -4.4375q-2.703125 -4.4375 -2.703125 -12.46875q-2.03125 8.15625 -6.109375 12.53125q-4.078125 4.375 -8.765625 4.375zm51.72119 0q-4.5625 0 -6.421875 -4.796875q-1.859375 -4.796875 -1.859375 -15.359375q0 -15.59375 4.4375 -29.640625q1.078125 -3.484375 3.53125 -5.09375q2.46875 -1.625 6.90625 -1.625q2.40625 0 3.359375 0.609375q0.96875 0.59375 0.96875 2.265625q0 1.921875 -1.796875 8.640625q-1.203125 4.8125 -1.921875 8.40625q-0.71875 3.59375 -1.203125 8.875q3.953125 -10.3125 8.875 -16.796875q4.921875 -6.484375 9.65625 -9.234375q4.75 -2.765625 8.703125 -2.765625q3.84375 0 5.8125 1.984375q1.984375 1.984375 1.984375 5.8125q0 3.125 -1.3125 11.765625q-1.203125 7.3125 -1.921875 13.859375q-0.71875 6.546875 -0.71875 14.578125q0 4.5625 -1.859375 6.546875q-1.859375 1.96875 -6.0625 1.96875q-3.953125 0 -5.765625 -2.03125q-1.796875 -2.046875 -1.796875 -6.125q0 -4.796875 1.6875 -15.84375q1.4375 -9.59375 1.4375 -12.234375q0 -1.921875 -1.3125 -1.921875q-1.5625 0 -4.390625 4.03125q-2.8125 4.015625 -5.765625 10.625q-2.9375 6.59375 -4.734375 13.90625q-1.3125 5.640625 -3.0625 7.625q-1.734375 1.96875 -5.453125 1.96875z" fill-rule="nonzero"/>
    </g>
</svg>